<svg width="31" height="27" viewBox="0 0 31 27" fill="none" xmlns="http://www.w3.org/2000/svg">
<path d="M22.5281 11.4188H19.9969C19.9453 7.05 16.3781 3.51562 12 3.51562C7.62186 3.51562 4.05467 7.05 4.0078 11.4188H1.47655C0.581235 11.4891 0.487485 12.2578 0.53436 12.5344L2.76561 25.6875C2.8453 26.1469 3.24373 26.4844 3.7078 26.4844H20.2922C20.7609 26.4844 21.1594 26.1469 21.2344 25.6875L23.4703 12.5344C23.5172 12.2578 23.4047 11.4844 22.5281 11.4188ZM12 5.42812C15.3234 5.42812 18.0281 8.10469 18.0797 11.4141H5.9203C5.97186 8.10469 8.67655 5.42812 12 5.42812ZM19.4859 24.5719H4.51873L2.60624 13.3312H21.3937L19.4859 24.5719Z" fill="black"/>
<path d="M8.01094 17.5172H15.9844C16.5141 17.5172 16.9406 17.0906 16.9406 16.5609C16.9406 16.0312 16.5141 15.6047 15.9844 15.6047H8.01094C7.48125 15.6047 7.05469 16.0312 7.05469 16.5609C7.05469 17.0906 7.48594 17.5172 8.01094 17.5172Z" fill="black"/>
<path d="M8.01094 22.2984H15.9844C16.5141 22.2984 16.9406 21.8719 16.9406 21.3422C16.9406 20.8125 16.5141 20.3859 15.9844 20.3859H8.01094C7.48125 20.3859 7.05469 20.8125 7.05469 21.3422C7.05469 21.8719 7.48594 22.2984 8.01094 22.2984Z" fill="black"/>
<circle cx="23" cy="8" r="8" fill="#EF2C2C"/>
<path d="M24.147 11H22.7891V7.28223L22.8022 6.67139L22.8242 6.00342C22.5986 6.229 22.4419 6.37695 22.354 6.44727L21.6157 7.04053L20.9609 6.22314L23.0308 4.5752H24.147V11Z" fill="black"/>
</svg>
