<svg width="22" height="22" viewBox="0 0 22 22" fill="none" xmlns="http://www.w3.org/2000/svg">
<path d="M10.9638 12.2824C14.2151 12.2824 16.8522 9.64531 16.8522 6.3941C16.8522 3.14289 14.215 0.523804 10.9638 0.523804C7.71263 0.523804 5.0755 3.16093 5.0755 6.3941C5.0755 9.62727 7.71259 12.2824 10.9638 12.2824ZM10.9638 2.05911C13.3481 2.05911 15.2988 4.00984 15.2988 6.3941C15.2988 8.77836 13.3481 10.729 10.9638 10.729C8.57962 10.729 6.62885 8.77832 6.62885 6.39406C6.62885 4.0098 8.57958 2.05911 10.9638 2.05911Z" fill="black"/>
<path d="M0.776675 21.4762H21.2233C21.6568 21.4762 22 21.133 22 20.6995C22 16.6355 18.6946 13.312 14.6125 13.312H7.38753C3.32349 13.312 0 16.6174 0 20.6995C0 21.133 0.34318 21.4762 0.776675 21.4762ZM7.38753 14.8653H14.6125C17.5747 14.8653 20.0131 17.069 20.3925 19.9228H1.60755C1.98684 17.087 4.4253 14.8653 7.38753 14.8653Z" fill="black"/>
</svg>
