<svg width="24" height="20" viewBox="0 0 24 20" fill="none" xmlns="http://www.w3.org/2000/svg">
<path d="M23.8634 2.42392C23.7412 2.30174 23.5375 2.26099 23.3746 2.30174L22.5598 2.58691C23.0487 2.01661 23.3746 1.40557 23.5782 0.835272C23.6597 0.631592 23.619 0.468657 23.4967 0.34642C23.3746 0.22423 23.1709 0.183485 23.0079 0.264929C21.8673 0.753781 20.8896 1.16114 20.0749 1.40552C20.0749 1.44627 20.0342 1.40552 19.9934 1.40552C19.3416 1.03891 17.7529 0.224183 16.6124 0.224183C13.7201 0.264929 11.3981 2.7091 11.3981 5.68282V5.84575C7.1616 5.03103 4.83967 3.80894 2.31401 1.1611L1.90674 0.753734L1.66231 1.24259C0.277296 3.89044 1.25495 6.29386 2.84365 7.9233C2.11042 7.80111 1.62157 7.55669 1.17346 7.19007C1.01053 7.06788 0.806846 7.02714 0.603166 7.14933C0.440231 7.23082 0.35874 7.47519 0.399485 7.67888C0.969782 9.59345 2.39555 11.1414 3.9435 12.0784C3.21027 12.0784 2.59923 11.9969 1.98818 11.5895C1.82525 11.508 1.58082 11.508 1.41789 11.6303C1.25495 11.7525 1.17346 11.9561 1.25495 12.1598C1.98818 14.2374 3.41395 15.3372 5.69518 15.6224C4.51384 16.3149 2.96589 16.8852 0.562467 16.9259C0.318041 16.9259 0.11436 17.0889 0.0329163 17.2926C-0.0485748 17.537 0.0329163 17.7407 0.195851 17.9036C1.66236 19.0849 4.9212 19.7775 8.95407 19.7775C16.1236 19.7775 21.9896 13.3819 21.9896 5.51988V5.39769C22.8858 4.94958 23.619 4.09412 23.9856 2.91278C24.0263 2.7498 23.9856 2.54611 23.8634 2.42392ZM21.4192 4.74586L21.1748 4.82735V5.51988C21.1748 12.9338 15.6754 18.9628 8.95402 18.9628C5.24703 18.9628 2.76216 18.3517 1.41789 17.6999C4.22867 17.4962 5.85812 16.6 7.12095 15.6224L8.13935 14.8891H6.91727C4.59533 14.8891 3.16957 14.2374 2.35485 12.6894C3.08808 12.9338 3.86206 12.9338 4.71752 12.8931C5.04339 12.8523 5.36931 12.8523 5.69518 12.8523L5.81737 12.0376C4.26942 11.5895 2.43629 10.2045 1.54008 8.33066C2.3548 8.69728 3.25097 8.77877 4.06569 8.77877H5.32852L4.31016 8.04549C3.45469 7.43445 0.929083 5.27545 2.15117 2.1795C4.75827 4.74586 7.24318 5.92719 11.7241 6.74192L12.213 6.82341V5.68282C12.213 3.1572 14.1683 1.07965 16.6124 1.03891C17.5494 0.99816 19.0974 1.85363 19.5454 2.09805C19.7898 2.22024 20.0343 2.26099 20.2787 2.17955C20.8897 1.97587 21.6229 1.69069 22.4376 1.36482C22.071 1.97587 21.5822 2.54616 20.9304 3.07576C20.7675 3.19795 20.7268 3.44237 20.8082 3.64606C20.8897 3.84974 21.1341 3.93123 21.3378 3.84974L22.9265 3.32019C22.6413 3.84969 22.1932 4.46073 21.4192 4.74586Z" fill="white"/>
</svg>
